<svg width="62" height="63" viewBox="0 0 62 63" fill="none" xmlns="http://www.w3.org/2000/svg">
<g clip-path="url(#clip0_1_1737)">
<path opacity="0.1" d="M1.61537 2.38531H59.2013C59.6474 2.38531 60.0089 2.74693 60.0089 3.193V60.779C60.0089 61.225 59.6474 61.5866 59.2013 61.5866H1.61537C1.16929 61.5866 0.807673 61.225 0.807673 60.779V3.193C0.807675 2.74693 1.16929 2.38531 1.61537 2.38531Z" stroke="#2C304C" stroke-width="1.61039"/>
<path d="M29.8765 39.0136L25.1375 39.0152L25.1385 36.1561L32.5497 36.1535L23.3682 26.9722L25.3906 24.9497L34.541 34.1001L34.5434 26.6822L37.4026 26.6812L37.3991 36.9583L37.4448 37.0039L35.4884 38.9603L32.7091 36.1812L29.8765 39.0136Z" fill="#6D7997"/>
</g>
<defs>
<clipPath id="clip0_1_1737">
<rect width="61.1948" height="62.8052" fill="white" transform="scale(1.0031)"/>
</clipPath>
</defs>
</svg>
