<svg width="46" height="46" viewBox="0 0 46 46" fill="none" xmlns="http://www.w3.org/2000/svg">
<g clip-path="url(#clip0_1_1473)">
<path opacity="0.1" d="M1.21062 1.03057H44.3639C44.6982 1.03057 44.9691 1.30156 44.9691 1.63583V44.7892C44.9691 45.1234 44.6982 45.3944 44.3639 45.3944H1.21062C0.876345 45.3944 0.60536 45.1234 0.60536 44.7892V1.63583L0.617182 1.51406C0.665481 1.27742 0.852209 1.09069 1.08886 1.04239L1.21062 1.03057Z" stroke="white" stroke-width="1.2"/>
<path d="M22.3888 28.4788L18.8375 28.48L18.8382 26.3374L24.392 26.3356L17.5116 19.4553L19.0272 17.9398L25.8842 24.7967L25.886 19.2379L28.0286 19.2372L28.026 26.9386L28.0602 26.9728L26.5942 28.4389L24.5115 26.3562L22.3888 28.4788Z" fill="#F8F8F8"/>
</g>
<defs>
<clipPath id="clip0_1_1473">
<rect width="45.6" height="45.6" fill="white" transform="scale(1.00877)"/>
</clipPath>
</defs>
</svg>
