<svg width="39" height="39" viewBox="0 0 39 39" fill="none" xmlns="http://www.w3.org/2000/svg">
<path d="M37.2261 11.5393C33.9938 11.8405 31.6036 13.6008 29.5325 15.7739C27.4441 17.9647 25.5442 20.3355 23.5587 22.6216C22.3197 24.0491 21.113 25.5059 19.8251 26.8907C17.9907 28.8575 15.9274 30.5295 13.3883 31.6769C13.6801 31.6447 13.9775 31.6389 14.2626 31.5757C16.281 31.1239 18.1768 30.1994 19.8089 28.8709C21.9117 27.1749 23.8989 25.3439 25.955 23.5924C27.7337 22.0718 29.4619 20.4735 31.3701 19.1314C32.5384 18.3262 33.8454 17.7699 35.2172 17.4939C37.6796 17.0032 39.136 18.4606 38.9904 20.9618C38.8103 24.0427 37.9465 26.9363 36.3134 29.5417C32.0083 36.408 25.726 39.4736 17.6467 38.9409C15.5061 38.7993 13.5889 37.8806 11.6662 37.0665C7.01984 35.094 3.5313 31.8804 1.48965 27.2165C1.35013 26.8972 1.23229 26.5685 1.02051 26.0322C1.83817 26.3936 2.45183 26.6708 3.06994 26.9375C6.76026 28.5265 10.2205 28.1814 13.4166 25.6959C15.555 24.031 17.1964 21.9239 18.66 19.6823C20.8378 16.3412 22.8606 12.8984 25.1212 9.61407C26.3869 7.77657 27.9227 6.10165 29.4808 4.49165C30.6931 3.23956 30.9627 3.35477 32.1567 4.80453C28.5353 7.05081 26.363 10.5533 24.134 14.0049C22.3609 16.75 20.6455 19.5337 18.809 22.2356C17.4193 24.276 15.7784 26.1158 13.714 27.5276C12.5634 28.3142 11.3499 28.9276 9.90862 29.0376C9.14821 29.0961 8.40114 29.3347 7.62961 29.6885C7.95034 29.7546 8.26885 29.8546 8.59291 29.8815C11.4939 30.1218 14.1292 29.3241 16.3087 27.4609C18.1253 25.9088 19.805 24.1731 21.3881 22.3812C23.2736 20.246 24.9128 17.8951 26.8077 15.7728C28.2154 14.2062 29.7452 12.7664 31.3813 11.4685C32.2901 10.7433 33.4696 10.2468 34.6052 9.93864C36.4062 9.44681 36.4279 9.32107 37.2261 11.5393Z" fill="white"/>
<path d="M2.7293 24.4596L2.15066 24.5889L0.649853 23.5637C-1.1639 17.6688 0.695986 9.0275 7.78702 3.7969C15.5045 -1.89453 24.8645 -0.315527 29.3086 2.8688C27.7822 2.98576 26.4604 1.95415 24.949 1.99158C24.9235 2.62669 24.929 2.61148 26.198 3.0577C26.8095 3.27174 27.3942 3.55479 27.9912 3.80685L27.8962 4.10861L25.1436 3.19279C24.6122 3.99165 25.2597 4.05656 25.6922 4.26125C26.1369 4.47061 26.566 4.70513 27.0018 4.92911L26.8617 5.25076L24.7606 4.3671C24.5349 4.73144 24.3209 5.07707 24.1008 5.43147L25.6438 6.61806L25.4665 6.89351L23.7067 5.87827L22.7439 6.74789L24.3693 8.50877L24.0797 8.78656C23.7462 8.48655 23.3571 8.22631 23.0852 7.87893C22.4977 7.13329 21.8991 7.1058 21.2131 7.71401C21.0819 7.83097 20.9257 7.91811 20.7379 8.04911C21.2498 8.85089 21.7562 9.61934 22.2387 10.4036C22.7017 11.1603 22.5022 11.8299 21.6828 12.2165C21.1425 12.4697 20.5711 12.6616 20.0091 12.8838C20.1259 13.6575 20.2382 14.4008 20.3504 15.1441L20.0136 15.2078L19.3327 13.1177L16.1643 13.8329C16.3533 14.9131 16.5373 15.9605 16.7402 17.1202L19.2776 16.5401C18.7835 17.6512 17.6495 17.2781 16.9714 17.7805C17.0514 18.467 17.1326 19.1635 17.2132 19.8601L16.8797 19.9156C16.6907 19.2483 16.5011 18.5817 16.2977 17.8635C15.2021 17.984 14.1299 18.0746 13.0693 18.2442C12.8875 18.2735 12.6291 18.6384 12.6302 18.8472C12.6346 19.8612 12.7152 20.8753 12.7758 22.0169L15.4439 21.8063L15.5039 22.1204C14.9559 22.2239 14.4095 22.4058 13.8608 22.4128C13.066 22.4204 12.6519 22.6175 12.8931 23.5058C12.9665 23.7754 12.9042 24.0819 12.9042 24.3713L12.6357 24.4181C12.5679 24.0509 12.4568 23.6842 12.4568 23.3187C12.4618 22.7339 12.2016 22.5251 11.6435 22.5181C10.802 22.5069 9.95874 22.4824 9.12051 22.4081C8.52297 22.3549 8.2784 22.6257 8.27006 23.1614C8.25505 24.1444 8.26617 25.1281 8.26617 26.3398C7.34512 26.2164 6.48743 26.2439 5.74092 25.9673C4.6848 25.5743 3.70927 24.9573 2.69929 24.4363L4.38575 25.1111C4.38575 23.8479 4.39186 22.7818 4.37796 21.7157C4.37796 21.5864 4.30515 21.3976 4.20565 21.3402C3.62645 21.0034 3.02891 20.6969 2.19791 20.2542C2.14232 21.387 2.11675 22.2678 2.04338 23.1444C1.99279 23.7485 2.16344 24.1959 2.7293 24.4596ZM1.0395 19.0559L2.0128 19.4068C2.19902 18.632 2.37077 17.8863 2.55754 17.1465C2.84825 15.9944 2.77989 15.8453 1.64316 15.2751C0.29355 16.5482 0.185156 17.1319 0.988366 18.732C1.0395 18.8343 1.04006 18.9618 1.06396 19.077L0.234071 18.6782C0.439181 20.4636 -0.163362 22.2122 1.64706 23.5678C1.55645 21.8982 2.47861 20.3379 1.03839 19.0559H1.0395ZM13.3717 5.9233C15.6474 5.79172 17.5673 5.41743 19.1526 4.16885C19.6339 3.78989 20.1048 3.0653 20.1086 2.49627C20.1136 1.68981 19.2443 1.37167 18.53 1.28746C17.5567 1.17049 16.5495 1.11786 15.584 1.23775C13.9298 1.44243 12.3456 1.94888 11.0871 3.11501C9.99432 4.12733 10.2183 5.15076 11.6291 5.59756C12.2783 5.80107 12.9759 5.85254 13.3717 5.9233ZM12.3222 22.142C12.1988 20.7507 12.0943 19.5764 11.9887 18.3992L9.51073 18.1559C9.48071 18.153 9.44013 18.1372 9.4229 18.1506C9.18555 18.3337 8.78756 18.491 8.74587 18.7132C8.58659 19.5936 8.48924 20.4851 8.4546 21.3806C8.44571 21.5718 8.72475 21.9327 8.89929 21.949C9.96375 22.0525 11.0349 22.0794 12.3222 22.142ZM7.95433 26.11C7.95433 24.8234 7.96879 23.7555 7.93766 22.6906C7.93321 22.542 7.73032 22.3181 7.57468 22.2689C6.83651 22.035 6.08444 21.8467 5.33459 21.6502C4.90047 21.5332 4.61198 21.6648 4.62588 22.1584C4.64867 23.0532 4.66423 23.9491 4.73705 24.8398C4.75539 25.0556 4.95939 25.3802 5.14226 25.4345C5.96493 25.6802 6.8115 25.8457 7.95433 26.11ZM5.38406 17.55C5.20508 18.5618 4.99496 19.6103 4.85433 20.6689C4.82987 20.8537 5.05778 21.2081 5.23509 21.2601C6.08777 21.5093 6.96325 21.6818 7.9699 21.9139C8.07162 20.5782 8.16167 19.3992 8.25116 18.215C7.39885 17.9694 6.5445 17.7241 5.68811 17.4793C5.66366 17.4723 5.63197 17.491 5.38406 17.55ZM15.5695 13.9306C14.7296 13.9832 13.9526 14.0096 13.1827 14.0955C12.9993 14.116 12.6947 14.3295 12.6897 14.4645C12.6485 15.5231 12.6669 16.5839 12.6669 17.7366L16.1743 17.2728C15.9648 16.1079 15.7797 15.0833 15.5695 13.9306ZM8.86037 17.6565H12.0387V14.1277L9.5135 13.9411C9.29283 15.2008 9.08883 16.3629 8.86204 17.6565H8.86037ZM17.9191 9.15149C17.2521 9.29769 16.7129 9.37079 16.2104 9.54799C16.0003 9.62168 15.7152 9.92695 15.7274 10.1094C15.7935 11.1124 15.9409 12.1107 16.0748 13.2294L19.1709 12.513C18.7246 11.3147 18.3316 10.2597 17.9191 9.15149ZM5.54248 16.9968L8.33843 17.5518C8.56522 16.2506 8.76477 15.1073 8.97822 13.8832L6.72256 13.278L5.54248 16.9968ZM15.0771 9.77081C14.5312 9.80239 14.0509 9.79654 13.5846 9.87315C13.4034 9.90239 13.131 10.0995 13.1077 10.2509C12.9487 11.3036 12.8447 12.3563 12.7074 13.5487L15.4456 13.2908C15.3177 12.0697 15.2032 10.9779 15.0771 9.77081ZM18.4889 9.05967L19.7496 12.3346L22.1875 11.4177C21.7623 10.7223 21.4055 10.1077 21.0202 9.51173C20.0992 8.09297 20.0936 8.09648 18.4889 9.05967ZM12.4901 9.92052C12.0365 9.87198 11.6513 9.78426 11.2722 9.80765C11.0599 9.82052 10.7325 9.97257 10.6741 10.1381C10.3089 11.1691 10.0071 12.2212 9.64191 13.392C10.3578 13.4359 10.9165 13.4563 11.4729 13.509C11.9593 13.5546 12.176 13.375 12.2094 12.8721C12.2722 11.92 12.3873 10.9714 12.4901 9.92052ZM4.39686 20.8326C4.59475 19.7168 4.79597 18.6413 4.96328 17.5576C4.98274 17.4296 4.85211 17.2103 4.72871 17.1413C4.27235 16.8857 3.79099 16.6734 3.22068 16.4009C3.00834 17.0857 2.80712 17.6419 2.66482 18.2138C2.21514 19.9963 2.33131 20.1952 4.08336 20.8086C4.13283 20.8285 4.1962 20.8198 4.39686 20.8326ZM9.07493 13.2885L10.2011 9.51583C9.61856 9.51583 8.88983 9.33278 8.74198 9.54741C8.06495 10.5287 7.55078 11.6218 6.91544 12.7902L9.07493 13.2885ZM4.85934 12.3884C4.51693 13.1516 4.18397 13.847 3.88937 14.5581C3.26125 16.0728 3.27793 16.0933 4.82654 16.6348C4.90325 16.6617 4.99719 16.6383 5.11558 16.6383L6.23118 13.0855L4.85934 12.3884ZM7.34289 8.4924L5.05666 11.913L6.42462 12.5218L8.23782 9.01698L7.34289 8.4924ZM3.67425 11.4586C3.18399 12.2727 2.7293 12.9955 2.3063 13.7394C1.74433 14.7336 1.87662 15.033 3.0139 15.4535L4.39798 12.1025L3.67425 11.4586ZM15.0137 6.25957C14.5312 6.45548 13.9576 6.51513 13.8681 6.75608C13.5685 7.53622 13.4467 8.38538 13.2299 9.32108L15.0137 9.11874V6.25957ZM17.6623 8.57018C17.2816 7.80056 16.9536 7.09878 16.5801 6.42156C16.505 6.28471 16.2232 6.14202 16.0932 6.18296C15.9125 6.24144 15.6651 6.45841 15.6557 6.6204C15.6101 7.3906 15.6351 8.1649 15.6351 9.00294C15.982 8.95557 16.2171 8.94095 16.4439 8.88949C16.8191 8.80411 17.1893 8.69533 17.6612 8.57018H17.6623ZM19.7273 7.8532C18.5439 5.93792 17.858 5.48469 17.042 6.05138C17.2421 6.44437 17.4439 6.84205 17.6473 7.23914C17.8508 7.63623 18.0486 8.0187 18.2588 8.42281L19.7273 7.8532ZM21.7017 6.82567C20.1759 5.36363 19.0425 4.90864 18.4861 5.48059L20.3921 7.54909L21.7017 6.82567ZM13.2283 6.57829C12.3739 6.42916 11.5051 7.54558 11.1927 9.18014C11.7214 9.06903 12.4078 9.71057 12.7047 8.82165C12.947 8.09706 13.0587 7.32861 13.2283 6.57829ZM3.66758 10.4381C4.49192 9.51056 5.32014 8.61053 6.10056 7.67073C6.23619 7.50757 6.16837 7.17656 6.1945 6.92334L5.89156 6.82918C5.11336 7.64792 4.33517 8.46959 3.54974 9.28541C3.1184 9.73338 3.19122 10.1082 3.66758 10.4387V10.4381ZM19.5811 4.68056C20.2526 5.10456 20.9007 5.43205 21.4483 5.88119C22.1542 6.46016 22.6422 6.35899 23.0713 5.60223C21.8007 4.58407 20.2698 4.14195 19.5811 4.68115V4.68056ZM20.5567 3.43256C20.5366 3.5583 20.5172 3.68345 20.4977 3.80919L23.6472 5.11274C23.8345 4.80688 23.998 4.54138 24.2953 4.06007L20.5567 3.43256ZM6.926 8.12338L6.62973 7.87015C5.81707 8.83686 4.98663 9.79011 4.21788 10.7907C4.13673 10.8972 4.42021 11.282 4.57974 11.6375L6.926 8.12338ZM11.8175 6.34437C11.0204 6.42039 9.74307 7.71693 9.32785 9.00879C9.82812 8.88598 10.3812 8.91639 10.5479 8.67837C11.0493 7.96139 11.4006 7.13972 11.8175 6.34437ZM2.98611 10.4381L2.70818 10.4708C2.14565 11.5592 1.46362 12.6054 1.4942 13.9107C2.12965 13.0912 2.68968 12.21 3.16676 11.279C3.26626 11.0814 3.05392 10.7246 2.98611 10.4387V10.4381ZM10.7603 5.97769C9.54296 6.3391 8.6725 7.13036 7.93265 8.17367C8.25505 8.28713 8.65082 8.38011 8.79478 8.23216C9.48738 7.51634 10.1116 6.7362 10.7603 5.97827V5.97769ZM19.7384 1.28687H23.4471C22.2042 0.393856 20.7473 0.38099 19.7384 1.28687ZM20.6278 2.88693C21.9224 3.16121 22.9763 3.39455 24.0369 3.59573C24.1536 3.61795 24.3904 3.47877 24.4176 3.37174C24.4449 3.26472 24.3187 3.00682 24.2142 2.97816C23.1103 2.66996 21.9919 2.51674 20.6317 2.8881L20.6278 2.88693ZM9.86647 4.97122C8.26561 5.0297 6.53134 6.17243 6.87597 6.87187L9.86647 4.97122ZM24.2809 2.37639C23.8362 1.59215 21.6439 1.48161 20.5178 2.18515L24.2809 2.37639ZM9.84424 4.14721C8.52242 3.87118 7.63972 4.55132 6.77981 5.4958L9.84424 4.14721Z" fill="white"/>
</svg>
