<svg width="51" height="51" viewBox="0 0 51 51" fill="none" xmlns="http://www.w3.org/2000/svg">
<path d="M48.6797 15.0894C44.4529 15.4833 41.3273 17.7852 38.6189 20.6271C35.888 23.4919 33.4035 26.5922 30.807 29.5817C29.1868 31.4484 27.6087 33.3535 25.9245 35.1644C23.5258 37.7363 20.8276 39.9227 17.5072 41.4232C17.8888 41.3811 18.2777 41.3735 18.6506 41.2909C21.2901 40.7001 23.7691 39.4911 25.9035 37.7539C28.6533 35.5361 31.2519 33.1416 33.9406 30.8512C36.2667 28.8628 38.5266 26.7727 41.022 25.0176C42.5497 23.9647 44.2589 23.2372 46.0527 22.8762C49.2729 22.2346 51.1773 24.1404 50.9869 27.4113C50.7513 31.44 49.6218 35.2241 47.4862 38.6311C41.8564 47.6101 33.6412 51.619 23.0759 50.9223C20.2766 50.7372 17.7696 49.5358 15.2553 48.4712C9.17927 45.8917 4.61733 41.6893 1.94748 35.5904C1.76503 35.1728 1.61093 34.743 1.33398 34.0417C2.40323 34.5144 3.20572 34.8769 4.01401 35.2256C8.83981 37.3034 13.3647 36.8522 17.5443 33.602C20.3406 31.4247 22.4871 28.6693 24.401 25.738C27.2489 21.3689 29.8941 16.8667 32.8503 12.5719C34.5054 10.169 36.5138 7.9787 38.5513 5.87331C40.1366 4.23596 40.4892 4.38662 42.0505 6.28246C37.3149 9.21991 34.4742 13.8001 31.5594 18.3137C29.2406 21.9035 26.9974 25.5437 24.5958 29.0769C22.7786 31.7452 20.6328 34.1511 17.9332 35.9972C16.4285 37.0258 14.8417 37.8281 12.9569 37.9718C11.9625 38.0483 10.9856 38.3603 9.97666 38.823C10.3961 38.9094 10.8126 39.0402 11.2364 39.0754C15.03 39.3897 18.4761 38.3466 21.3263 35.91C23.7017 33.8804 25.8984 31.6106 27.9686 29.2673C30.4342 26.4752 32.5777 23.4009 35.0557 20.6255C36.8965 18.577 38.8971 16.6942 41.0365 14.9969C42.225 14.0486 43.7674 13.3993 45.2524 12.9963C47.6076 12.3531 47.6359 12.1887 48.6797 15.0894Z" fill="#0055FE"/>
<path d="M3.56909 31.9857L2.8124 32.1547L0.849807 30.8141C-1.52202 23.1053 0.910136 11.8052 10.183 4.96518C20.2751 -2.47747 32.5152 -0.412612 38.3266 3.75151C36.3306 3.90446 34.6021 2.55542 32.6256 2.60437C32.5922 3.4349 32.5995 3.41502 34.259 3.99853C35.0585 4.27843 35.8232 4.64857 36.6039 4.97819L36.4796 5.3728L32.8801 4.17519C32.1852 5.21985 33.032 5.30474 33.5975 5.5724C34.179 5.84619 34.7402 6.15286 35.31 6.44576L35.1269 6.86638L32.3792 5.71082C32.0841 6.18727 31.8043 6.63924 31.5164 7.10269L33.5343 8.65439L33.3024 9.01459L31.0011 7.68697L29.7421 8.82416L31.8675 11.1269L31.4888 11.4901C31.0527 11.0978 30.5438 10.7575 30.1884 10.3032C29.4201 9.32814 28.6372 9.2922 27.7402 10.0875C27.5687 10.2405 27.3644 10.3544 27.1188 10.5258C27.7882 11.5742 28.4504 12.5791 29.0813 13.6047C29.6868 14.5943 29.4259 15.4699 28.3545 15.9754C27.6479 16.3066 26.9007 16.5574 26.1658 16.848C26.3185 17.8598 26.4653 18.8318 26.6121 19.8038L26.1716 19.8872L25.2812 17.1539L21.1379 18.0892C21.3851 19.5017 21.6257 20.8714 21.891 22.388L25.2092 21.6293C24.563 23.0824 23.0802 22.5944 22.1934 23.2514C22.298 24.1492 22.4042 25.06 22.5096 25.9709L22.0734 26.0435C21.8263 25.1709 21.5784 24.2991 21.3124 23.36C19.8797 23.5175 18.4775 23.636 17.0906 23.8578C16.8529 23.8961 16.5149 24.3733 16.5164 24.6463C16.5222 25.9724 16.6276 27.2985 16.7068 28.7913L20.1959 28.516L20.2744 28.9267C19.5577 29.062 18.8432 29.2999 18.1257 29.309C17.0863 29.319 16.5447 29.5767 16.8602 30.7384C16.9562 31.0909 16.8747 31.4917 16.8747 31.8702L16.5237 31.9314C16.435 31.4511 16.2896 30.9716 16.2896 30.4936C16.2961 29.7289 15.956 29.4559 15.2262 29.4467C14.1257 29.4322 13.023 29.4 11.9268 29.3029C11.1454 29.2333 10.8256 29.5874 10.8147 30.2879C10.7951 31.5735 10.8096 32.8598 10.8096 34.4444C9.60515 34.283 8.48357 34.319 7.50736 33.9572C6.12627 33.4433 4.85059 32.6365 3.52984 31.9551L5.73521 32.8376C5.73521 31.1858 5.7432 29.7916 5.72503 28.3974C5.72503 28.2284 5.62981 27.9814 5.4997 27.9065C4.74228 27.466 3.96088 27.0652 2.87418 26.4863C2.8015 27.9676 2.76806 29.1194 2.67211 30.2657C2.60596 31.0557 2.82912 31.6408 3.56909 31.9857ZM1.35935 24.9193L2.63213 25.3782C2.87564 24.3649 3.10024 23.3898 3.34448 22.4224C3.72464 20.9158 3.63524 20.7208 2.14875 19.9751C0.383873 21.64 0.242128 22.4032 1.29248 24.4956C1.35935 24.6295 1.36008 24.7962 1.39133 24.9468L0.306093 24.4253C0.574314 26.7601 -0.213627 29.0467 2.15384 30.8194C2.03536 28.636 3.24126 26.5957 1.3579 24.9193H1.35935ZM17.4861 7.74585C20.4619 7.57378 22.9726 7.08434 25.0457 5.45157C25.6752 4.95601 26.2908 4.00847 26.2959 3.26436C26.3025 2.20975 25.1656 1.79372 24.2316 1.6836C22.9588 1.53065 21.6417 1.46182 20.3791 1.61859C18.2159 1.88626 16.1442 2.54854 14.4986 4.07347C13.0695 5.39727 13.3624 6.73561 15.2073 7.31988C16.0563 7.58602 16.9685 7.65332 17.4861 7.74585ZM16.1137 28.9549C15.9523 27.1356 15.8157 25.5999 15.6776 24.0605L12.4371 23.7423C12.3979 23.7385 12.3448 23.7179 12.3223 23.7355C12.0119 23.9748 11.4914 24.1805 11.4369 24.4712C11.2286 25.6224 11.1013 26.7883 11.056 27.9592C11.0444 28.2093 11.4093 28.6812 11.6375 28.7026C13.0295 28.8379 14.4302 28.8731 16.1137 28.9549ZM10.4018 34.1438C10.4018 32.4614 10.4207 31.0649 10.38 29.6723C10.3742 29.478 10.1089 29.1851 9.90536 29.1209C8.94005 28.815 7.95657 28.5687 6.976 28.3118C6.40831 28.1588 6.03105 28.3309 6.04922 28.9764C6.07903 30.1464 6.09938 31.3181 6.1946 32.4828C6.21859 32.765 6.48535 33.1894 6.7245 33.2606C7.80029 33.5818 8.90734 33.7982 10.4018 34.1438ZM7.0407 22.9501C6.80664 24.2731 6.53188 25.6443 6.34797 27.0285C6.31599 27.2702 6.61402 27.7336 6.84589 27.8017C7.96094 28.1275 9.10578 28.3531 10.4222 28.6567C10.5552 26.91 10.673 25.3682 10.79 23.8196C9.67542 23.4984 8.55819 23.1777 7.4383 22.8575C7.40632 22.8483 7.36489 22.8728 7.0407 22.9501ZM20.3602 18.217C19.2618 18.2858 18.2457 18.3202 17.2389 18.4326C16.999 18.4594 16.6007 18.7385 16.5942 18.9152C16.5404 20.2994 16.5644 21.6867 16.5644 23.194L21.151 22.5876C20.877 21.0641 20.6349 19.7243 20.3602 18.217ZM11.5866 23.0892H15.743V18.4747L12.4407 18.2307C12.1522 19.878 11.8854 21.3976 11.5888 23.0892H11.5866ZM23.4327 11.9673C22.5605 12.1585 21.8554 12.2541 21.1983 12.4858C20.9235 12.5822 20.5506 12.9814 20.5666 13.22C20.6531 14.5316 20.8457 15.837 21.0209 17.3L25.0697 16.3632C24.486 14.7962 23.9721 13.4165 23.4327 11.9673ZM7.24786 22.2266L10.9041 22.9523C11.2007 21.2508 11.4616 19.7556 11.7407 18.155L8.79104 17.3635L7.24786 22.2266ZM19.7161 12.7772C19.0023 12.8185 18.3743 12.8109 17.7645 12.911C17.5275 12.9493 17.1713 13.207 17.1408 13.4051C16.9329 14.7816 16.797 16.1582 16.6174 17.7176L20.1981 17.3803C20.0309 15.7835 19.8811 14.3557 19.7161 12.7772ZM24.1778 11.8473L25.8264 16.1299L29.0145 14.9308C28.4584 14.0215 27.9917 13.2177 27.488 12.4384C26.2836 10.5831 26.2763 10.5877 24.1778 11.8473ZM16.3332 12.973C15.7401 12.9095 15.2363 12.7948 14.7406 12.8254C14.4629 12.8422 14.0348 13.041 13.9585 13.2575C13.4809 14.6058 13.0862 15.9816 12.6086 17.5126C13.5449 17.57 14.2754 17.5967 15.003 17.6656C15.639 17.7252 15.9225 17.4904 15.9661 16.8327C16.0483 15.5877 16.1987 14.3473 16.3332 12.973ZM5.74975 27.2427C6.00852 25.7835 6.27165 24.3771 6.49044 22.96C6.51589 22.7925 6.34506 22.5057 6.1837 22.4155C5.58692 22.0813 4.95744 21.8037 4.21166 21.4473C3.93399 22.3428 3.67085 23.0701 3.48477 23.8181C2.89672 26.149 3.04864 26.4091 5.33978 27.2113C5.40447 27.2373 5.48734 27.2258 5.74975 27.2427ZM11.8672 17.3772L13.3399 12.4438C12.5781 12.4438 11.6252 12.2044 11.4318 12.4851C10.5465 13.7683 9.8741 15.1977 9.04327 16.7257L11.8672 17.3772ZM6.35452 16.2003C5.90675 17.1983 5.47135 18.1076 5.0861 19.0375C4.26472 21.0183 4.28652 21.045 6.31163 21.7532C6.41194 21.7884 6.53478 21.7578 6.68961 21.7578L8.14847 17.1119L6.35452 16.2003ZM9.60225 11.1054L6.61256 15.5785L8.40143 16.3746L10.7725 11.7914L9.60225 11.1054ZM4.80479 14.9843C4.16368 16.0489 3.56909 16.9941 3.01593 17.9669C2.28105 19.267 2.45404 19.6585 3.94125 20.2084L5.7512 15.8263L4.80479 14.9843ZM19.6333 8.18559C19.0023 8.44179 18.2522 8.51979 18.1352 8.83487C17.7434 9.85506 17.5842 10.9655 17.3007 12.1891L19.6333 11.9245V8.18559ZM23.0969 11.2072C22.599 10.2007 22.1701 9.28302 21.6816 8.39743C21.5835 8.21847 21.215 8.03187 21.0449 8.08541C20.8087 8.16188 20.4852 8.44561 20.4728 8.65745C20.4132 9.66464 20.4459 10.6772 20.4459 11.7731C20.8995 11.7111 21.207 11.692 21.5036 11.6247C21.9942 11.5131 22.4783 11.3708 23.0954 11.2072H23.0969ZM25.7973 10.2696C24.2497 7.76497 23.3528 7.17228 22.2857 7.91334C22.5474 8.42726 22.8112 8.94729 23.0773 9.46656C23.3433 9.98584 23.6021 10.486 23.8768 11.0144L25.7973 10.2696ZM28.3792 8.92588C26.3839 7.01398 24.9018 6.41899 24.1741 7.16693L26.6666 9.87189L28.3792 8.92588ZM17.2985 8.60238C16.1813 8.40737 15.0452 9.8673 14.6367 12.0048C15.3279 11.8595 16.2256 12.6984 16.6138 11.536C16.9307 10.5885 17.0768 9.58357 17.2985 8.60238ZM4.79607 13.6498C5.87404 12.4369 6.95711 11.2599 7.97766 10.031C8.15502 9.81759 8.06634 9.38473 8.1005 9.05359L7.70435 8.93047C6.6867 10.0011 5.66906 11.0756 4.64197 12.1425C4.07791 12.7283 4.17313 13.2185 4.79607 13.6506V13.6498ZM25.6061 6.12074C26.4842 6.67519 27.3317 7.10345 28.0477 7.69079C28.9709 8.4479 29.6091 8.3156 30.1702 7.326C28.5086 5.99455 26.5067 5.41639 25.6061 6.1215V6.12074ZM26.8818 4.48874C26.8556 4.65316 26.8302 4.81682 26.8047 4.98124L30.9233 6.68589C31.1682 6.28592 31.3819 5.93872 31.7708 5.30932L26.8818 4.48874ZM9.05708 10.6229L8.66965 10.2917C7.60694 11.5559 6.52098 12.8024 5.51569 14.111C5.40957 14.2501 5.78027 14.7533 5.98889 15.2183L9.05708 10.6229ZM15.4537 8.29648C14.4113 8.3959 12.7409 10.0914 12.198 11.7807C12.8522 11.6201 13.5754 11.6599 13.7935 11.3486C14.4491 10.411 14.9085 9.33655 15.4537 8.29648ZM3.90491 13.6498L3.54147 13.6926C2.80586 15.1158 1.91397 16.484 1.95395 18.1909C2.78492 17.1192 3.51727 15.9669 4.14115 14.7495C4.27126 14.491 3.99359 14.0245 3.90491 13.6506V13.6498ZM14.0711 7.81698C12.4793 8.2896 11.341 9.32432 10.3735 10.6887C10.7951 10.837 11.3126 10.9586 11.5009 10.7651C12.4066 9.82906 13.2229 8.80887 14.0711 7.81774V7.81698ZM25.8118 1.68283H30.6616C29.0363 0.515043 27.1311 0.498218 25.8118 1.68283ZM26.9748 3.77522C28.6678 4.13389 30.0459 4.43903 31.4328 4.7021C31.5855 4.73116 31.8951 4.54916 31.9307 4.4092C31.9664 4.26925 31.8014 3.93199 31.6647 3.89452C30.2211 3.49149 28.7586 3.29112 26.9799 3.77675L26.9748 3.77522ZM12.9023 6.50082C10.8089 6.5773 8.54099 8.07164 8.99166 8.98629L12.9023 6.50082ZM31.7519 3.10758C31.1704 2.08204 28.3036 1.9375 26.8309 2.8575L31.7519 3.10758ZM12.8732 5.42328C11.1447 5.06231 9.9904 5.95173 8.86591 7.18681L12.8732 5.42328Z" fill="#0055FE"/>
</svg>
